<?xml version="1.0"?>
<svg version="1.1" id="topsvg"
xmlns="http://www.w3.org/2000/svg" xmlns:xlink="http://www.w3.org/1999/xlink"
xmlns:cml="http://www.xml-cml.org/schema" x="0" y="0" width="200px" height="200px" viewBox="0 0 100 100">
<title> - Open Babel Depiction</title>
<rect x="0" y="0" width="100" height="100" fill="white"/>
<g transform="translate(0,0)">
<svg width="100" height="100" x="0" y="0" viewBox="0 0 568.282 444.802"
font-family="sans-serif" stroke="rgb(0,0,0)" stroke-width="2"  stroke-linecap="round">
<line x1="496.5" y1="302.2" x2="457.3" y2="306.3" opacity="1.0" stroke="rgb(0,0,0)"  stroke-width="2.0"/>
<line x1="496.5" y1="302.2" x2="517.8" y2="286.7" opacity="1.0" stroke="rgb(0,0,0)"  stroke-width="2.0"/>
<line x1="496.5" y1="302.2" x2="493.7" y2="276.0" opacity="1.0" stroke="rgb(0,0,0)"  stroke-width="2.0"/>
<line x1="496.5" y1="302.2" x2="511.9" y2="323.5" opacity="1.0" stroke="rgb(0,0,0)"  stroke-width="2.0"/>
<line x1="431.0" y1="277.1" x2="436.5" y2="251.3" opacity="1.0" stroke="rgb(0,0,0)"  stroke-width="2.0"/>
<line x1="395.1" y1="293.1" x2="372.3" y2="279.9" opacity="1.0" stroke="rgb(0,0,0)"  stroke-width="2.0"/>
<line x1="361.0" y1="260.4" x2="361.0" y2="234.1" opacity="1.0" stroke="rgb(0,0,0)"  stroke-width="2.0"/>
<line x1="349.8" y1="279.9" x2="338.2" y2="286.6" opacity="1.0" stroke="rgb(0,0,0)"  stroke-width="2.0"/>
<line x1="359.5" y1="231.5" x2="382.3" y2="218.3" opacity="1.0" stroke="rgb(0,0,0)"  stroke-width="2.0"/>
<line x1="362.5" y1="236.7" x2="385.3" y2="223.5" opacity="1.0" stroke="rgb(0,0,0)"  stroke-width="2.0"/>
<line x1="361.0" y1="234.1" x2="327.0" y2="214.4" opacity="1.0" stroke="rgb(0,0,0)"  stroke-width="2.0"/>
<line x1="327.0" y1="214.4" x2="327.0" y2="188.1" opacity="1.0" stroke="rgb(0,0,0)"  stroke-width="2.0"/>
<line x1="327.0" y1="214.4" x2="300.6" y2="214.4" opacity="1.0" stroke="rgb(0,0,0)"  stroke-width="2.0"/>
<line x1="327.0" y1="214.4" x2="313.8" y2="237.2" opacity="1.0" stroke="rgb(0,0,0)"  stroke-width="2.0"/>
<line x1="340.0" y1="172.1" x2="353.3" y2="172.1" opacity="1.0" stroke="rgb(0,0,0)"  stroke-width="2.0"/>
<line x1="340.0" y1="178.1" x2="353.3" y2="178.1" opacity="1.0" stroke="rgb(0,0,0)"  stroke-width="2.0"/>
<line x1="324.0" y1="162.1" x2="324.0" y2="148.8" opacity="1.0" stroke="rgb(0,0,0)"  stroke-width="2.0"/>
<line x1="330.0" y1="162.1" x2="330.0" y2="148.8" opacity="1.0" stroke="rgb(0,0,0)"  stroke-width="2.0"/>
<line x1="314.0" y1="175.1" x2="287.6" y2="175.1" opacity="1.0" stroke="rgb(0,0,0)"  stroke-width="2.0"/>
<line x1="264.5" y1="206.9" x2="284.8" y2="269.4" opacity="1.0" stroke="rgb(0,0,0)"  stroke-width="2.0"/>
<line x1="216.6" y1="202.4" x2="195.3" y2="217.9" opacity="1.0" stroke="rgb(0,0,0)"  stroke-width="2.0"/>
<line x1="195.3" y1="217.9" x2="199.4" y2="257.0" opacity="1.0" stroke="rgb(0,0,0)"  stroke-width="2.0"/>
<line x1="195.3" y1="217.9" x2="169.1" y2="220.6" opacity="1.0" stroke="rgb(0,0,0)"  stroke-width="2.0"/>
<line x1="195.3" y1="217.9" x2="179.8" y2="196.6" opacity="1.0" stroke="rgb(0,0,0)"  stroke-width="2.0"/>
<line x1="235.3" y1="273.0" x2="256.6" y2="257.5" opacity="1.0" stroke="rgb(0,0,0)"  stroke-width="2.0"/>
<line x1="239.4" y1="312.1" x2="263.5" y2="322.8" opacity="1.0" stroke="rgb(0,0,0)"  stroke-width="2.0"/>
<line x1="207.6" y1="335.2" x2="210.4" y2="361.4" opacity="1.0" stroke="rgb(0,0,0)"  stroke-width="2.0"/>
<line x1="171.7" y1="319.2" x2="139.9" y2="342.3" opacity="1.0" stroke="rgb(0,0,0)"  stroke-width="2.0"/>
<line x1="139.9" y1="381.7" x2="161.2" y2="397.2" opacity="1.0" stroke="rgb(0,0,0)"  stroke-width="2.0"/>
<line x1="66.3" y1="362.0" x2="53.0" y2="362.0" opacity="1.0" stroke="rgb(0,0,0)"  stroke-width="2.0"/>
<line x1="102.5" y1="330.2" x2="94.3" y2="305.1" opacity="1.0" stroke="rgb(0,0,0)"  stroke-width="2.0"/>
<line x1="167.6" y1="280.1" x2="143.5" y2="269.4" opacity="1.0" stroke="rgb(0,0,0)"  stroke-width="2.0"/>
<line x1="197.9" y1="129.1" x2="172.8" y2="137.2" opacity="1.0" stroke="rgb(0,0,0)"  stroke-width="2.0"/>
<line x1="206.0" y1="90.6" x2="186.5" y2="73.0" opacity="1.0" stroke="rgb(0,0,0)"  stroke-width="2.0"/>
<line x1="243.5" y1="78.5" x2="248.9" y2="52.7" opacity="1.0" stroke="rgb(0,0,0)"  stroke-width="2.0"/>
<line x1="272.7" y1="104.8" x2="297.7" y2="96.7" opacity="1.0" stroke="rgb(0,0,0)"  stroke-width="2.0"/>
<line x1="395.1" y1="293.1" x2="397.8" y2="319.3" opacity="1.0" stroke="rgb(0,0,0)"  stroke-width="2.0"/>
<line x1="402.9" y1="298.3" x2="404.8" y2="316.5" opacity="1.0" stroke="rgb(0,0,0)"  stroke-width="2.0"/>
<line x1="411.9" y1="334.9" x2="425.0" y2="337.7" opacity="1.0" stroke="rgb(0,0,0)"  stroke-width="2.0"/>
<line x1="444.2" y1="329.1" x2="457.3" y2="306.3" opacity="1.0" stroke="rgb(0,0,0)"  stroke-width="2.0"/>
<line x1="457.3" y1="306.3" x2="431.0" y2="277.1" opacity="1.0" stroke="rgb(0,0,0)"  stroke-width="2.0"/>
<line x1="448.0" y1="306.7" x2="429.7" y2="286.4" opacity="1.0" stroke="rgb(0,0,0)"  stroke-width="2.0"/>
<line x1="431.0" y1="277.1" x2="395.1" y2="293.1" opacity="1.0" stroke="rgb(0,0,0)"  stroke-width="2.0"/>
<line x1="227.1" y1="181.8" x2="227.1" y2="155.4" opacity="1.0" stroke="rgb(0,0,0)"  stroke-width="2.0"/>
<line x1="227.1" y1="155.4" x2="264.5" y2="143.3" opacity="1.0" stroke="rgb(0,0,0)"  stroke-width="2.0"/>
<line x1="235.0" y1="160.4" x2="261.0" y2="152.0" opacity="1.0" stroke="rgb(0,0,0)"  stroke-width="2.0"/>
<line x1="264.5" y1="143.3" x2="287.6" y2="175.1" opacity="1.0" stroke="rgb(0,0,0)"  stroke-width="2.0"/>
<line x1="287.6" y1="175.1" x2="264.5" y2="206.9" opacity="1.0" stroke="rgb(0,0,0)"  stroke-width="2.0"/>
<line x1="278.3" y1="175.7" x2="262.2" y2="197.8" opacity="1.0" stroke="rgb(0,0,0)"  stroke-width="2.0"/>
<line x1="264.5" y1="206.9" x2="239.5" y2="198.8" opacity="1.0" stroke="rgb(0,0,0)"  stroke-width="2.0"/>
<line x1="94.8" y1="383.3" x2="87.0" y2="372.5" opacity="1.0" stroke="rgb(0,0,0)"  stroke-width="2.0"/>
<line x1="87.0" y1="351.5" x2="102.5" y2="330.2" opacity="1.0" stroke="rgb(0,0,0)"  stroke-width="2.0"/>
<line x1="102.5" y1="330.2" x2="139.9" y2="342.3" opacity="1.0" stroke="rgb(0,0,0)"  stroke-width="2.0"/>
<line x1="105.9" y1="338.9" x2="131.9" y2="347.3" opacity="1.0" stroke="rgb(0,0,0)"  stroke-width="2.0"/>
<line x1="139.9" y1="342.3" x2="139.9" y2="381.7" opacity="1.0" stroke="rgb(0,0,0)"  stroke-width="2.0"/>
<line x1="139.9" y1="381.7" x2="114.8" y2="389.8" opacity="1.0" stroke="rgb(0,0,0)"  stroke-width="2.0"/>
<line x1="131.9" y1="376.7" x2="114.5" y2="382.3" opacity="1.0" stroke="rgb(0,0,0)"  stroke-width="2.0"/>
<line x1="243.5" y1="78.5" x2="272.7" y2="104.8" opacity="1.0" stroke="rgb(0,0,0)"  stroke-width="2.0"/>
<line x1="243.1" y1="87.8" x2="263.4" y2="106.1" opacity="1.0" stroke="rgb(0,0,0)"  stroke-width="2.0"/>
<line x1="272.7" y1="104.8" x2="264.5" y2="143.3" opacity="1.0" stroke="rgb(0,0,0)"  stroke-width="2.0"/>
<line x1="227.1" y1="155.4" x2="197.9" y2="129.1" opacity="1.0" stroke="rgb(0,0,0)"  stroke-width="2.0"/>
<line x1="197.9" y1="129.1" x2="206.0" y2="90.6" opacity="1.0" stroke="rgb(0,0,0)"  stroke-width="2.0"/>
<line x1="206.2" y1="124.7" x2="211.8" y2="98.0" opacity="1.0" stroke="rgb(0,0,0)"  stroke-width="2.0"/>
<line x1="206.0" y1="90.6" x2="243.5" y2="78.5" opacity="1.0" stroke="rgb(0,0,0)"  stroke-width="2.0"/>
<line x1="239.4" y1="312.1" x2="207.6" y2="335.2" opacity="1.0" stroke="rgb(0,0,0)"  stroke-width="2.0"/>
<line x1="207.6" y1="335.2" x2="171.7" y2="319.2" opacity="1.0" stroke="rgb(0,0,0)"  stroke-width="2.0"/>
<line x1="205.1" y1="326.2" x2="180.1" y2="315.1" opacity="1.0" stroke="rgb(0,0,0)"  stroke-width="2.0"/>
<line x1="171.7" y1="319.2" x2="167.6" y2="280.1" opacity="1.0" stroke="rgb(0,0,0)"  stroke-width="2.0"/>
<line x1="167.6" y1="280.1" x2="199.4" y2="257.0" opacity="1.0" stroke="rgb(0,0,0)"  stroke-width="2.0"/>
<line x1="176.7" y1="282.4" x2="198.8" y2="266.3" opacity="1.0" stroke="rgb(0,0,0)"  stroke-width="2.0"/>
<line x1="199.4" y1="257.0" x2="235.3" y2="273.0" opacity="1.0" stroke="rgb(0,0,0)"  stroke-width="2.0"/>
<line x1="235.3" y1="273.0" x2="239.4" y2="312.1" opacity="1.0" stroke="rgb(0,0,0)"  stroke-width="2.0"/>
<line x1="228.8" y1="279.7" x2="231.6" y2="306.9" opacity="1.0" stroke="rgb(0,0,0)"  stroke-width="2.0"/>
<text x="281.629985" y="222.421417" fill="rgb(191,191,191)" stroke-width="0" font-weight="bold" font-size="16" >H</text>
<text x="170.819343" y="72.309337" fill="rgb(127,178,255)" stroke-width="0" font-weight="bold" font-size="16" >F</text>
<text x="304.096515" y="100.638274" fill="rgb(127,178,255)" stroke-width="0" font-weight="bold" font-size="16" >F</text>
<text x="393.202103" y="340.205945" fill="rgb(12,12,255)" stroke-width="0" font-weight="bold" font-size="16" >N</text>
<text x="431.675909" y="348.383805" fill="rgb(255,12,12)" stroke-width="0" font-weight="bold" font-size="16" >O</text>
<text x="522.281772" y="287.089133" fill="rgb(191,191,191)" stroke-width="0" font-weight="bold" font-size="16" >H</text>
<text x="486.348984" y="271.090825" fill="rgb(191,191,191)" stroke-width="0" font-weight="bold" font-size="16" >H</text>
<text x="513.579990" y="342.030021" fill="rgb(191,191,191)" stroke-width="0" font-weight="bold" font-size="16" >H</text>
<text x="433.201298" y="246.615970" fill="rgb(191,191,191)" stroke-width="0" font-weight="bold" font-size="16" >H</text>
<text x="320.963319" y="301.088084" fill="rgb(191,191,191)" stroke-width="0" font-weight="bold" font-size="16" >H</text>
<text x="301.296652" y="256.485083" fill="rgb(191,191,191)" stroke-width="0" font-weight="bold" font-size="16" >H</text>
<text x="282.819769" y="289.725865" fill="rgb(191,191,191)" stroke-width="0" font-weight="bold" font-size="16" >H</text>
<text x="150.163013" y="229.985756" fill="rgb(191,191,191)" stroke-width="0" font-weight="bold" font-size="16" >H</text>
<text x="166.161321" y="194.052968" fill="rgb(191,191,191)" stroke-width="0" font-weight="bold" font-size="16" >H</text>
<text x="261.146450" y="257.870919" fill="rgb(191,191,191)" stroke-width="0" font-weight="bold" font-size="16" >H</text>
<text x="269.369356" y="336.106642" fill="rgb(191,191,191)" stroke-width="0" font-weight="bold" font-size="16" >H</text>
<text x="205.726686" y="382.345748" fill="rgb(191,191,191)" stroke-width="0" font-weight="bold" font-size="16" >H</text>
<text x="165.682445" y="412.802019" fill="rgb(191,191,191)" stroke-width="0" font-weight="bold" font-size="16" >H</text>
<text x="34.000000" y="370.015799" fill="rgb(191,191,191)" stroke-width="0" font-weight="bold" font-size="16" >H</text>
<text x="84.298218" y="300.786241" fill="rgb(191,191,191)" stroke-width="0" font-weight="bold" font-size="16" >H</text>
<text x="125.638204" y="272.113410" fill="rgb(191,191,191)" stroke-width="0" font-weight="bold" font-size="16" >H</text>
<text x="154.463623" y="149.256948" fill="rgb(191,191,191)" stroke-width="0" font-weight="bold" font-size="16" >H</text>
<text x="245.635789" y="48.000000" fill="rgb(191,191,191)" stroke-width="0" font-weight="bold" font-size="16" >H</text>
<text x="355.026985" y="281.421417" fill="rgb(12,12,255)" stroke-width="0" font-weight="bold" font-size="16" >N</text>
<text x="389.090650" y="222.421417" fill="rgb(255,12,12)" stroke-width="0" font-weight="bold" font-size="16" >O</text>
<text x="320.963319" y="183.088084" fill="rgb(178,178,0)" stroke-width="0" font-weight="bold" font-size="16" >S</text>
<text x="360.296652" y="183.088084" fill="rgb(255,12,12)" stroke-width="0" font-weight="bold" font-size="16" >O</text>
<text x="320.963319" y="143.754750" fill="rgb(255,12,12)" stroke-width="0" font-weight="bold" font-size="16" >O</text>
<text x="221.102209" y="202.754750" fill="rgb(12,12,255)" stroke-width="0" font-weight="bold" font-size="16" >N</text>
<text x="96.452887" y="401.837134" fill="rgb(12,12,255)" stroke-width="0" font-weight="bold" font-size="16" >N</text>
<text x="73.333333" y="370.015799" fill="rgb(12,12,255)" stroke-width="0" font-weight="bold" font-size="16" >N</text>
<text x="496.460437" y="302.208686" fill="rgb(255,0,0)" stroke-width="0" font-weight="bold" font-size="12" >1</text>
<text x="457.342576" y="306.320139" fill="rgb(255,0,0)" stroke-width="0" font-weight="bold" font-size="12" >2</text>
<text x="431.023438" y="277.089776" fill="rgb(255,0,0)" stroke-width="0" font-weight="bold" font-size="12" >3</text>
<text x="395.090650" y="293.088084" fill="rgb(255,0,0)" stroke-width="0" font-weight="bold" font-size="12" >4</text>
<text x="361.026985" y="273.421417" fill="rgb(255,0,0)" stroke-width="0" font-weight="bold" font-size="12" >5</text>
<text x="361.026985" y="234.088084" fill="rgb(255,0,0)" stroke-width="0" font-weight="bold" font-size="12" >6</text>
<text x="395.090650" y="214.421417" fill="rgb(255,0,0)" stroke-width="0" font-weight="bold" font-size="12" >7</text>
<text x="326.963319" y="214.421417" fill="rgb(255,0,0)" stroke-width="0" font-weight="bold" font-size="12" >8</text>
<text x="326.963319" y="175.088084" fill="rgb(255,0,0)" stroke-width="0" font-weight="bold" font-size="12" >9</text>
<text x="366.296652" y="175.088084" fill="rgb(255,0,0)" stroke-width="0" font-weight="bold" font-size="12" >10</text>
<text x="326.963319" y="135.754750" fill="rgb(255,0,0)" stroke-width="0" font-weight="bold" font-size="12" >11</text>
<text x="287.629985" y="175.088084" fill="rgb(255,0,0)" stroke-width="0" font-weight="bold" font-size="12" >12</text>
<text x="264.510432" y="206.909419" fill="rgb(255,0,0)" stroke-width="0" font-weight="bold" font-size="12" >13</text>
<text x="227.102209" y="194.754750" fill="rgb(255,0,0)" stroke-width="0" font-weight="bold" font-size="12" >14</text>
<text x="195.280874" y="217.874303" fill="rgb(255,0,0)" stroke-width="0" font-weight="bold" font-size="12" >15</text>
<text x="199.392327" y="256.992165" fill="rgb(255,0,0)" stroke-width="0" font-weight="bold" font-size="12" >16</text>
<text x="235.325115" y="272.990473" fill="rgb(255,0,0)" stroke-width="0" font-weight="bold" font-size="12" >17</text>
<text x="239.436568" y="312.108334" fill="rgb(255,0,0)" stroke-width="0" font-weight="bold" font-size="12" >18</text>
<text x="207.615233" y="335.227887" fill="rgb(255,0,0)" stroke-width="0" font-weight="bold" font-size="12" >19</text>
<text x="171.682445" y="319.229579" fill="rgb(255,0,0)" stroke-width="0" font-weight="bold" font-size="12" >20</text>
<text x="139.861110" y="342.349132" fill="rgb(255,0,0)" stroke-width="0" font-weight="bold" font-size="12" >21</text>
<text x="139.861110" y="381.682466" fill="rgb(255,0,0)" stroke-width="0" font-weight="bold" font-size="12" >22</text>
<text x="102.452887" y="393.837134" fill="rgb(255,0,0)" stroke-width="0" font-weight="bold" font-size="12" >23</text>
<text x="79.333333" y="362.015799" fill="rgb(255,0,0)" stroke-width="0" font-weight="bold" font-size="12" >24</text>
<text x="102.452887" y="330.194464" fill="rgb(255,0,0)" stroke-width="0" font-weight="bold" font-size="12" >25</text>
<text x="167.570992" y="280.111718" fill="rgb(255,0,0)" stroke-width="0" font-weight="bold" font-size="12" >26</text>
<text x="227.102209" y="155.421417" fill="rgb(255,0,0)" stroke-width="0" font-weight="bold" font-size="12" >27</text>
<text x="197.871846" y="129.102280" fill="rgb(255,0,0)" stroke-width="0" font-weight="bold" font-size="12" >28</text>
<text x="206.049706" y="90.628474" fill="rgb(255,0,0)" stroke-width="0" font-weight="bold" font-size="12" >29</text>
<text x="176.819343" y="64.309337" fill="rgb(255,0,0)" stroke-width="0" font-weight="bold" font-size="12" >30</text>
<text x="243.457929" y="78.473806" fill="rgb(255,0,0)" stroke-width="0" font-weight="bold" font-size="12" >31</text>
<text x="272.688292" y="104.792943" fill="rgb(255,0,0)" stroke-width="0" font-weight="bold" font-size="12" >32</text>
<text x="310.096515" y="92.638274" fill="rgb(255,0,0)" stroke-width="0" font-weight="bold" font-size="12" >33</text>
<text x="264.510432" y="143.266748" fill="rgb(255,0,0)" stroke-width="0" font-weight="bold" font-size="12" >34</text>
<text x="399.202103" y="332.205945" fill="rgb(255,0,0)" stroke-width="0" font-weight="bold" font-size="12" >35</text>
<text x="437.675909" y="340.383805" fill="rgb(255,0,0)" stroke-width="0" font-weight="bold" font-size="12" >36</text>
<text x="528.281772" y="279.089133" fill="rgb(255,0,0)" stroke-width="0" font-weight="bold" font-size="12" >37</text>
<text x="492.348984" y="263.090825" fill="rgb(255,0,0)" stroke-width="0" font-weight="bold" font-size="12" >38</text>
<text x="519.579990" y="334.030021" fill="rgb(255,0,0)" stroke-width="0" font-weight="bold" font-size="12" >39</text>
<text x="439.201298" y="238.615970" fill="rgb(255,0,0)" stroke-width="0" font-weight="bold" font-size="12" >40</text>
<text x="326.963319" y="293.088084" fill="rgb(255,0,0)" stroke-width="0" font-weight="bold" font-size="12" >41</text>
<text x="287.629985" y="214.421417" fill="rgb(255,0,0)" stroke-width="0" font-weight="bold" font-size="12" >42</text>
<text x="307.296652" y="248.485083" fill="rgb(255,0,0)" stroke-width="0" font-weight="bold" font-size="12" >43</text>
<text x="288.819769" y="281.725865" fill="rgb(255,0,0)" stroke-width="0" font-weight="bold" font-size="12" >44</text>
<text x="156.163013" y="221.985756" fill="rgb(255,0,0)" stroke-width="0" font-weight="bold" font-size="12" >45</text>
<text x="172.161321" y="186.052968" fill="rgb(255,0,0)" stroke-width="0" font-weight="bold" font-size="12" >46</text>
<text x="267.146450" y="249.870919" fill="rgb(255,0,0)" stroke-width="0" font-weight="bold" font-size="12" >47</text>
<text x="275.369356" y="328.106642" fill="rgb(255,0,0)" stroke-width="0" font-weight="bold" font-size="12" >48</text>
<text x="211.726686" y="374.345748" fill="rgb(255,0,0)" stroke-width="0" font-weight="bold" font-size="12" >49</text>
<text x="171.682445" y="404.802019" fill="rgb(255,0,0)" stroke-width="0" font-weight="bold" font-size="12" >50</text>
<text x="40.000000" y="362.015799" fill="rgb(255,0,0)" stroke-width="0" font-weight="bold" font-size="12" >51</text>
<text x="90.298218" y="292.786241" fill="rgb(255,0,0)" stroke-width="0" font-weight="bold" font-size="12" >52</text>
<text x="131.638204" y="264.113410" fill="rgb(255,0,0)" stroke-width="0" font-weight="bold" font-size="12" >53</text>
<text x="160.463623" y="141.256948" fill="rgb(255,0,0)" stroke-width="0" font-weight="bold" font-size="12" >54</text>
<text x="251.635789" y="40.000000" fill="rgb(255,0,0)" stroke-width="0" font-weight="bold" font-size="12" >55</text>
</svg>
</g>
<text font-size="18.000000" fill ="black" font-family="sans-serif"
x="10.000000" y="20.000000" ></text>
</svg>
